<svg id="regular" enable-background="new 0 0 24 24" height="512" viewBox="0 0 24 24" width="512" xmlns="http://www.w3.org/2000/svg"><path d="m17.573 16.512c1.508-1.752 2.427-4.025 2.427-6.512 0-5.514-4.486-10-10-10s-10 4.486-10 10 4.486 10 10 10c2.487 0 4.76-.919 6.512-2.427l6.208 6.208c.146.146.338.22.53.22s.384-.073.53-.22c.293-.293.293-.768 0-1.061zm-16.073-6.512c0-4.687 3.813-8.5 8.5-8.5s8.5 3.813 8.5 8.5-3.813 8.5-8.5 8.5-8.5-3.813-8.5-8.5z"/><path d="m10 9c1.654 0 3-1.346 3-3s-1.346-3-3-3-3 1.346-3 3 1.346 3 3 3zm0-4.5c.827 0 1.5.673 1.5 1.5s-.673 1.5-1.5 1.5-1.5-.673-1.5-1.5.673-1.5 1.5-1.5z"/><path d="m12.25 10h-4.5c-1.517 0-2.75 1.233-2.75 2.75v1.5c0 .414.336.75.75.75s.75-.336.75-.75v-1.5c0-.689.561-1.25 1.25-1.25h4.5c.689 0 1.25.561 1.25 1.25v1.5c0 .414.336.75.75.75s.75-.336.75-.75v-1.5c0-1.517-1.233-2.75-2.75-2.75z"/></svg>