<svg width="479.99999999999994" height="400" xmlns="http://www.w3.org/2000/svg">

 <g>
  <title>background</title>
  <rect fill="none" id="canvas_background" height="402" width="582" y="-1" x="-1"/>
 </g>
 <g>
  <title>Layer 1</title>
  <polygon id="svg_1" points="330,355 470,285 150,125 10,195 " opacity="0.3" fill="#262626"/>
  <polygon id="svg_3" points="69.3,196.4 119.5,182.4 84.9,162.5 67.4,179.4  " fill="#2D3134"/>
  <polygon id="svg_4" points="261.7,296.2 311.9,282.2 277.2,262.3 259.7,279.2  " fill="#2D3134"/>
  <polygon id="svg_5" points="69.3,196.4 119.5,182.4 84.9,162.5 67.4,179.4  " opacity="0.29"/>
  <polygon id="svg_6" points="261.7,296.2 311.9,282.2 277.2,262.3 259.7,279.2  " opacity="0.29"/>
  <path id="svg_8" fill="#2D3134" d="m298.4,276.3c-6.7,-3.4 -12.8,-3.8 -17.3,-1.7l0,0l-9.5,5.1l0,0c-4.8,2.2 -7.9,7.1 -7.9,14.3c0,13.9 11.3,30.9 25.2,37.8c6.9,3.4 13.1,3.8 17.7,1.6c0,0 9.4,-5 10.4,-5.6c4.1,-2.4 6.6,-7.1 6.6,-13.6c0,-14 -11.3,-30.9 -25.2,-37.9z"/>
  <path id="svg_9" opacity="0.29" d="m306.9,333.3c1.8,-0.9 9.2,-4.9 10.1,-5.5c4.1,-2.4 6.6,-7.1 6.6,-13.6c0,-5.6 -1.8,-11.7 -4.9,-17.4l-9.5,5.1c3.1,5.7 4.9,11.8 4.9,17.4c0.1,6.8 -2.7,11.7 -7.2,14z"/>
  <path id="svg_11" fill="#2D3134" d="m314.2,319.3c0,13.9 -11.3,19.6 -25.2,12.6c-13.9,-7 -25.2,-23.9 -25.2,-37.8s11.3,-19.6 25.2,-12.6c13.9,6.9 25.2,23.9 25.2,37.8z"/>
  <path id="svg_12" fill="#E5E5E5" d="m308.6,316.5c0,10.9 -8.8,15.3 -19.7,9.9c-10.9,-5.4 -19.7,-18.7 -19.7,-29.6c0,-10.9 8.8,-15.3 19.7,-9.9c10.9,5.5 19.7,18.7 19.7,29.6z"/>
  <path id="svg_14" fill="#2D3134" d="m301.9,325.3c3,-1.7 4.8,-5 4.8,-9.7c0,-0.4 0,-0.8 0,-1.1l-11,-1.7l6.2,12.5z"/>
  <path id="svg_15" fill="#2D3134" d="m293.1,303.6l11.5,2.5c-2.4,-5.7 -6.7,-11.3 -11.9,-14.9l0.4,12.4z"/>
  <path id="svg_16" fill="#2D3134" d="m284.8,299.5l0.4,-12c-5.2,-1.5 -9.5,-0.3 -11.9,3l11.5,9z"/>
  <path id="svg_17" fill="#2D3134" d="m271.2,296.7c0,0.4 0,0.7 0,1.1c0,4.7 1.8,9.8 4.8,14.5l6.3,-6.2l-11.1,-9.4z"/>
  <path id="svg_18" fill="#2D3134" d="m288.9,314.2l-6.8,5.5c2.1,1.9 4.4,3.5 6.8,4.7c2.4,1.2 4.7,1.9 6.8,2l-6.8,-12.2z"/>
  <path id="svg_19" opacity="0.11" d="m314.2,319.3c0,13.9 -11.3,19.6 -25.2,12.6s-25.2,-23.9 -25.2,-37.8s11.3,-19.6 25.2,-12.6c13.9,6.9 25.2,23.9 25.2,37.8z"/>
  <path id="svg_21" fill="#2D3134" d="m106.2,179.6c-6.7,-3.4 -12.8,-3.8 -17.3,-1.7l0,0l-9.5,5.1l0,0c-4.8,2.2 -7.9,7.1 -7.9,14.3c0,13.9 11.3,30.9 25.2,37.8c6.9,3.4 13.1,3.8 17.7,1.6c0,0 9.4,-5 10.4,-5.6c4.1,-2.4 6.6,-7.1 6.6,-13.6c0.1,-14 -11.2,-30.9 -25.2,-37.9z"/>
  <path id="svg_22" opacity="0.29" d="m114.8,236.6c1.8,-0.9 9.2,-4.9 10.1,-5.5c4.1,-2.4 6.6,-7.1 6.6,-13.6c0,-5.6 -1.8,-11.7 -4.9,-17.4l-9.5,5.1c3.1,5.7 4.9,11.8 4.9,17.4c0,6.8 -2.8,11.6 -7.2,14z"/>
  <path id="svg_24" fill="#2D3134" d="m122,222.5c0,13.9 -11.3,19.6 -25.2,12.6c-13.9,-7 -25.2,-23.9 -25.2,-37.8c0,-13.9 11.3,-19.6 25.2,-12.6c13.9,7 25.2,23.9 25.2,37.8z"/>
  <path id="svg_25" fill="#E5E5E5" d="m116.5,219.8c0,10.9 -8.8,15.3 -19.7,9.9s-19.7,-18.7 -19.7,-29.6c0,-10.9 8.8,-15.3 19.7,-9.9s19.7,18.7 19.7,29.6z"/>
  <path id="svg_27" fill="#2D3134" d="m109.8,228.5c3,-1.7 4.8,-5 4.8,-9.7c0,-0.4 0,-0.8 0,-1.1l-11,-1.7l6.2,12.5z"/>
  <path id="svg_28" fill="#2D3134" d="m100.9,206.8l11.5,2.5c-2.4,-5.7 -6.7,-11.3 -11.9,-14.9l0.4,12.4z"/>
  <path id="svg_29" fill="#2D3134" d="m92.7,202.7l0.4,-12c-5.2,-1.5 -9.5,-0.3 -11.9,3l11.5,9z"/>
  <path id="svg_30" fill="#2D3134" d="m79.1,199.9c0,0.4 0,0.7 0,1.1c0,4.7 1.8,9.8 4.8,14.5l6.3,-6.2l-11.1,-9.4z"/>
  <path id="svg_31" fill="#2D3134" d="m96.8,217.5l-6.8,5.5c2.1,1.9 4.4,3.5 6.8,4.7c2.4,1.2 4.7,1.9 6.8,2l-6.8,-12.2z"/>
  <path id="svg_32" opacity="0.11" d="m122,222.5c0,13.9 -11.3,19.6 -25.2,12.6s-25.2,-23.9 -25.2,-37.8c0,-13.9 11.3,-19.6 25.2,-12.6c13.9,7 25.2,23.9 25.2,37.8z"/>
  <path id="svg_33" fill="#ff6230" d="m441,221c-19.3,-17.2 -102.5,-82.6 -116.4,-92.9c-13.9,-10.3 -64.2,-41.9 -98,-50.6c-33.8,-8.7 -38,-3.6 -44.9,-5.1c-6.9,-1.5 -27.4,-6.3 -57.6,3c-12.9,4 -28.2,8.4 -40.7,19.6c-16.6,14.8 -29.4,37.8 -35.6,50.3l-1.3,4.2c-2.3,7.5 -1.3,15.7 2.7,22.4c3.4,5.7 7.7,12.3 10.9,15.9c2.8,3.1 6.2,6.4 9.1,9.2c0,-0.2 0,-0.5 0,-0.7c0,-10.6 6.2,-17.4 15.8,-17.4c3.8,0 7.9,1.1 12.1,3.2c14.5,7.2 26.2,24.9 26.2,39.4c0,1.9 -0.2,3.7 -0.6,5.4l138.9,69.4c-0.1,-1.1 -0.2,-2.2 -0.2,-3.2c0,-10.6 6.2,-17.4 15.8,-17.4c3.8,0 7.9,1.1 12.1,3.2c14.5,7.2 26.2,24.9 26.2,39.4c0,1.7 -0.2,3.2 -0.5,4.7l11.1,5.5c0,0 20.8,5.4 34.1,4.2c13.3,-1.2 40.7,-10.2 62.7,-21.1c22,-10.9 40.6,-30.1 41,-40.1c0.2,-3.8 -3.6,-33.3 -22.9,-50.5z"/>
  <path id="svg_34" fill="#F8EBCB" d="m363.8,162.5c0,0 -1.2,-8.4 0,-10.6c1.2,-2.1 3.3,-5.4 6,-3c2.7,2.4 5.7,9.3 3,15.7c-2.7,6.4 -9,-2.1 -9,-2.1z"/>
  <path id="svg_35" opacity="0.3" fill="#FFFFFF" d="m58.8,129.7c0,0 64.4,44.5 138.4,84.3s112.9,62.4 112.9,62.4l-45.7,-39.2l-163.9,-95.6l-41.7,-11.9z"/>
  <path id="svg_36" fill="#2D3134" d="m102.1,142.6l162.2,94.7c0,0 -15.7,-69 -71.1,-96.8s-91.1,2.1 -91.1,2.1z"/>
  <path id="svg_37" fill="#2D3134" d="m169.7,91.4c21.6,-10.2 39.2,-13.3 39.2,-15.4c0,-2.1 -55.5,-4.8 -89.8,12.4s-32.6,32 -19.6,30.4s30.4,-3 35.9,-5.7s15.9,-13 34.3,-21.7z"/>
  <path id="svg_38" fill="#656565" d="m98.9,116.5c-1.3,0 -4.4,-0.3 -4.9,-2.6c-0.8,-3.4 3.8,-12.9 27.1,-24.5c25.5,-12.7 61.4,-13.7 71.8,-13.7c5.3,0 9.3,0.2 12,0.5c-1.4,0.5 -2.9,1 -4.5,1.5c-7.2,2.3 -18.1,5.8 -30.2,11.6c-12.3,5.8 -21.3,12.5 -27.2,16.8c-3.1,2.2 -5.5,4 -7.2,4.9c-4.2,2.1 -17.2,3.5 -28.6,4.8c-2.3,0.3 -4.6,0.5 -6.7,0.7c-0.6,0 -1.1,0 -1.6,0l0,0z"/>
  <path id="svg_39" fill="#2D3134" d="m244.4,169.5c-2,5.5 30.1,59.7 40.1,62.4c9.9,2.7 39.8,1.8 69.3,-14.5c29.5,-16.3 35,-28.9 33.5,-33.5c-1.5,-4.5 -58.2,-52.2 -67.5,-53.1s-73,32 -75.4,38.7z"/>
  <path id="svg_40" opacity="0.2" fill="#FFFFFF" d="m323.1,287c0,0 4.2,-5.6 15.5,-6.9c11.3,-1.2 25.1,-0.1 35.4,9.1c7.7,6.9 10.5,9.8 10.5,9.8s-21.8,7.1 -32.6,5.6c-10.7,-1.5 -28.8,-17.6 -28.8,-17.6z"/>
  <path id="svg_41" fill="#E5E5E5" d="m325.2,285.1c0,0 3.9,-5.2 14.3,-6.3s23.2,-0.1 32.7,8.4c7.1,6.3 9.7,9 9.7,9s-20.1,6.6 -30.1,5.2s-26.6,-16.3 -26.6,-16.3z"/>
  <path id="svg_42" opacity="0.2" fill="#FFFFFF" d="m444.4,267.4c0,0 15.2,-14.2 14.4,-18.2c-0.8,-4.1 -12.5,-24.3 -14,-21.3s-4.7,7.8 -3.5,11.9c1.2,4.1 3.4,24 3.1,27.6z"/>
  <path id="svg_43" fill="#E5E5E5" d="m444.3,264.6c0,0 14.3,-14.2 13.6,-18.2c-0.8,-4.1 -12.5,-24.3 -14,-21.3c-1.5,3 -4.7,7.8 -3.5,11.9c1.2,4 4.2,23.9 3.9,27.6z"/>
  <path id="svg_44" fill="#2D3134" d="m353.7,324.5l-0.5,4.4c0,0 44.7,-5.7 72.8,-23c28,-17.3 34.8,-30.8 34.8,-30.8s-21.6,23.4 -48,34.2c-27.7,11.2 -59.1,15.2 -59.1,15.2z"/>
  <path id="svg_45" fill="#656565" d="m380.9,180.2c-5.1,-4.9 -14.8,-13.5 -27.1,-23.4c-20,-16.2 -31.7,-23.7 -34.5,-23.9c0,0 -0.1,0 -0.1,0c-4.1,0 -20.4,6.8 -38.6,16.2c-20.9,10.7 -32.1,18.3 -33.7,20.6c0.2,2.8 5.7,14.7 15.9,31.1c11.3,18.1 19.5,27.1 22.2,27.9c1.5,0.4 3.4,0.7 5.6,0.9c13.2,-2 36,-7.1 58.2,-20.2c18.8,-11.1 27.8,-21.8 32.1,-29.2z"/>
  <path id="svg_46" fill="#656565" d="m115.8,138.8l-2.1,6.3l62.4,36.4l10,-40.2l-0.3,-0.4c-13.2,-5.8 -26.2,-8.7 -38.9,-8.7c-13.3,0.1 -23.9,3.4 -31.1,6.6z"/>
  <path id="svg_47" fill="#656565" d="m247.3,223.1l2.5,-15.3c-1.1,-2.3 -2.2,-4.6 -3.5,-7c-9.4,-17.8 -26,-41.7 -52.3,-55.8l0,0l-6.2,43.3l59.5,34.8z"/>
  <path id="svg_48" opacity="0.2" d="m126.2,169.6c0,2.9 -2.4,4.1 -5.3,2.7c-2.9,-1.5 -5.3,-5 -5.3,-8s2.4,-4.1 5.3,-2.7c2.9,1.5 5.3,5 5.3,8z"/>
  <path id="svg_49" fill="#F8EBCB" d="m112.4,160.6l-2.3,2.6c0,0 16.7,10.9 18.2,8.7c1.6,-2.1 -15.9,-11.3 -15.9,-11.3z"/>
  <path id="svg_50" opacity="0.2" d="m197.4,210.1c0,2.9 -2.4,4.1 -5.3,2.7c-2.9,-1.5 -5.3,-5 -5.3,-8c0,-2.9 2.4,-4.1 5.3,-2.7c2.9,1.5 5.3,5 5.3,8z"/>
  <path id="svg_51" fill="#F8EBCB" d="m183.6,201l-2.3,2.6c0,0 16.7,10.9 18.2,8.7c1.6,-2.1 -15.9,-11.3 -15.9,-11.3z"/>
  <path id="svg_52" opacity="0.2" d="m263.9,237.2c0,0.1 -1.8,7 -3.3,15.4c-1.4,7.6 -2.2,32.8 -2.4,37.3l-79.6,-40.3c-0.1,-1.6 -1.2,-16.5 -1.2,-30.1c0,-14.3 3.6,-30.2 3.6,-30.3l-0.9,-0.2c0,0.2 -3.6,16.2 -3.6,30.5c0,12.6 0.9,26.4 1.2,29.6l-39.6,-20c-0.9,-1.2 -10.5,-14.3 -19.9,-34.2c-9.7,-20.5 -7.4,-46.5 -7.3,-46.8l-0.9,-0.1c0,0.3 -2.4,26.5 7.4,47.3c9.9,20.8 20,34.3 20.1,34.4l0.1,0.1l121.4,61.6l0,-0.7c0,-0.3 0.9,-29.6 2.4,-37.9c1.5,-8.3 3.3,-15.3 3.3,-15.3l-0.8,-0.3z"/>
  <path id="svg_53" opacity="0.3" d="m359.1,286.2c0,3.6 -2.9,7.9 -6.5,9.7s-6.5,0.3 -6.5,-3.2c0,-3.6 2.9,-7.9 6.5,-9.7s6.5,-0.4 6.5,3.2z"/>
  <path id="svg_54" opacity="0.3" d="m369.1,288.8c0,2.5 -2,5.5 -4.5,6.8c-2.5,1.2 -4.5,0.2 -4.5,-2.3c0,-2.5 2,-5.5 4.5,-6.8c2.5,-1.2 4.5,-0.2 4.5,2.3z"/>
  <path id="svg_55" fill="#FFFFFF" d="m344.7,292.1c0,1.3 -1.1,3 -2.4,3.6c-1.3,0.7 -2.4,0.1 -2.4,-1.2s1.1,-3 2.4,-3.6c1.3,-0.7 2.4,-0.2 2.4,1.2z"/>
  <path id="svg_56" opacity="0.4" fill="#FFFFFF" d="m356.4,288.9c0,1.8 -1.5,4 -3.2,4.9c-1.8,0.9 -3.2,0.2 -3.2,-1.6s1.5,-4 3.2,-4.9c1.7,-0.9 3.2,-0.2 3.2,1.6z"/>
  <path id="svg_57" opacity="0.4" fill="#FFFFFF" d="m367.4,290.6c0,1.3 -1.1,3 -2.4,3.6c-1.3,0.7 -2.4,0.1 -2.4,-1.2s1.1,-3 2.4,-3.6c1.3,-0.7 2.4,-0.1 2.4,1.2z"/>
  <path id="svg_58" fill="#FFFFFF" d="m341.1,284c0,1.3 -1.1,3 -2.4,3.6c-1.3,0.7 -2.4,0.1 -2.4,-1.2s1.1,-3 2.4,-3.6c1.3,-0.7 2.4,-0.1 2.4,1.2z"/>
  <path id="svg_59" fill="#FFFFFF" d="m448,231.4c0,1.3 -1.1,3 -2.4,3.6c-1.3,0.7 -2.4,0.1 -2.4,-1.2c0,-1.3 1.1,-3 2.4,-3.6c1.3,-0.7 2.4,-0.2 2.4,1.2z"/>
  <path id="svg_60" fill="#FFFFFF" d="m452.5,237.7c0,1.3 -1.1,3 -2.4,3.6c-1.3,0.7 -2.4,0.1 -2.4,-1.2s1.1,-3 2.4,-3.6c1.3,-0.7 2.4,-0.1 2.4,1.2z"/>
  <path id="svg_61" opacity="0.3" d="m453.9,241.9c0,3.1 -2.5,6.8 -5.6,8.3s-5.6,0.3 -5.6,-2.8s2.5,-6.8 5.6,-8.3c3.1,-1.5 5.6,-0.2 5.6,2.8z"/>
  <path id="svg_62" opacity="0.4" fill="#FFFFFF" d="m450.6,245.2c0,1.6 -1.3,3.5 -2.8,4.3c-1.6,0.8 -2.8,0.1 -2.8,-1.4s1.3,-3.5 2.8,-4.3c1.5,-0.8 2.8,-0.2 2.8,1.4z"/>
  <path id="svg_63" opacity="0.3" d="m449.4,250.3c0,-2.5 -2,-3.5 -4.5,-2.3c-0.8,0.4 -1.5,0.9 -2.1,1.6c0.4,2.7 0.8,5.5 1.1,7.9c0.3,-0.1 0.7,-0.2 1.1,-0.4c2.4,-1.2 4.4,-4.3 4.4,-6.8z"/>
  <path id="svg_64" opacity="0.3" d="m325.2,285c4.9,-0.4 18.7,-1.1 27.4,1c8.7,2.1 23.8,7.9 29.2,10.1c-0.6,-0.6 -3.4,-3.4 -9.6,-8.9c-9.5,-8.5 -22.3,-9.5 -32.7,-8.4c-9.5,1 -13.6,5.4 -14.3,6.2z"/>
  <path id="svg_65" fill="#F8EBCB" d="m241.7,212.9c0,0 7.5,3.6 10.9,8.1c3.3,4.5 3.3,6.9 3.3,6.9s-20.8,4.5 -31.1,-2.1c-10.9,-7.1 16.9,-12.9 16.9,-12.9z"/>
  <polygon id="svg_66" points="296.4,230.3 300.2,230 335.2,213 337.1,209.5 358.4,199.6 357.5,197.9 316.8,216 318,217.5    333.8,210.5 332.9,211.5 298.7,227.9  " fill="#2D3134"/>
  <polygon id="svg_67" points="333.4,220.9 336.7,220.9 364.6,200.2 368,192.2 378.7,178.6 378,177.6 357.9,200.5 358.7,201.7    364.1,196.9 362.6,199.6 334.3,219.2  " fill="#2D3134"/>
  <path id="svg_68" fill="#2D3134" d="m375.6,286.9l11.6,10.4c0,0 16.8,-3.2 31.8,-10.9c15,-7.7 24,-18.1 24,-18.1l-1.2,-15.2c0,0 -6.8,12.3 -26.4,22c-17.4,8.7 -39.8,11.8 -39.8,11.8z"/>
  <path id="svg_69" opacity="0.29" d="m422.2,308.9c21.9,-11 40.6,-29.6 41,-39.6c0.1,-1.7 0.2,-4.5 -2.2,-12.4c-0.2,-0.7 -1.1,-0.8 -1.5,-0.2c-7.7,11 -20.8,25.3 -41.2,35.1c-21.2,10.2 -47.2,18.9 -67.2,17.9c-4.7,-0.2 -5.5,4.5 -5.9,11.9c-0.2,4.8 3.8,8.8 8.6,8.3c17.2,-1.7 44.8,-9.2 68.4,-21z"/>
  <path id="svg_70" opacity="0.11" d="m328.2,295.8c-7,-7.9 -47,-49.9 -57.4,-66.3c-13.6,-21.3 -35.8,-73.4 -76.7,-92.9c-41,-19.5 -87.4,-11.2 -101.4,-10.2c-8.5,0.5 -21.7,-2.6 -30.9,-5.2c-6,9.1 -10.7,17.9 -13.8,24.2l-1.3,4.2c-2.3,7.5 -1.3,15.7 2.7,22.4c3.4,5.7 7.7,12.3 10.9,15.9c2.8,3.1 6.2,6.4 9.1,9.2c0,-0.2 0,-0.5 0,-0.7c0,-10.6 6.2,-17.4 15.8,-17.4c3.8,0 7.9,1.1 12.1,3.2c14.5,7.2 26.2,24.9 26.2,39.4c0,1.9 -0.2,3.7 -0.6,5.4l138.9,69.4c-0.1,-1.1 -0.2,-2.2 -0.2,-3.2c0,-10.6 6.2,-17.4 15.8,-17.4c3.8,0 7.9,1.1 12.1,3.2c14.5,7.2 26.2,24.9 26.2,39.4c0,1.7 -0.2,3.2 -0.5,4.7l11.1,5.5c0,0 5.8,1.5 13.2,2.8c-1.8,-14.7 -5.5,-29 -11.3,-35.6z"/>
  <path id="svg_71" fill="#CC291F" d="m49.4,148.5c0,0 6.3,-16.1 9.8,-21.1c3.5,-5 7.4,-9.5 7.4,-9.5l-1.1,-3c0,0 -7.4,2.6 -8.7,4.8c-1.4,2.3 -8.9,25.6 -8.9,25.6l1.5,3.2z"/>
  <path id="svg_72" opacity="0.2" d="m379,183.1c0.7,-1 1.3,-2 1.8,-2.9c-5.1,-4.9 -14.8,-13.5 -27.1,-23.4c-20,-16.2 -31.7,-23.7 -34.5,-23.9c0,0 -0.1,0 -0.1,0c-4.1,0 -20.4,6.8 -38.6,16.2c-20.9,10.7 -32.1,18.3 -33.7,20.6c0.1,0.9 0.7,2.9 1.9,5.6c42.7,-13.8 89.4,-11.1 130.3,7.8z"/>
  <polygon id="svg_73" points="408.4,303.2 408.4,317.8 434.7,304.7 434.7,290.2  " fill="#E5E5E5"/>
  <path id="svg_74" opacity="0.2" d="m444.3,264.6c0,0 14.3,-14.2 13.6,-18.2c-0.8,-4.1 -12.5,-24.3 -14,-21.3c-1.5,3 -4.7,7.8 -3.5,11.9c1.2,4 4.2,23.9 3.9,27.6z"/>
  <path id="svg_75" fill="#2D3134" d="m245.8,173.9c-3.2,-7.9 -25.4,-33.1 -50,-45.2c-31,-15.2 -58,-15.2 -63.5,-14.4l-0.2,-1.3c5.6,-0.8 33,-0.8 64.3,14.5c10.9,5.3 22.7,14 33.4,24.4c8.5,8.2 15.4,16.9 17.3,21.5l-1.3,0.5z"/>
  <path id="svg_76" fill="#2D3134" d="m325.1,135l-0.1,-0.1c-10,-7.3 -36.7,-26.7 -61.3,-38.7c-30.9,-15.1 -55,-19.8 -60.3,-19.8l0,-1.4c5.4,0 29.8,4.7 60.9,20c24.7,12.1 51.4,31.5 61.5,38.8l0.1,0.1l-0.8,1.1z"/>
 </g>
</svg>